<svg
  width="275"
  height="110"
  viewBox="0 0 275 110"
  fill="none"
  xmlns="http://www.w3.org/2000/svg"
>
  <path
    d="M114.674 35.0587H94.4347V48.7063H125.047L124.539 51.2525C123.42 57.4652 117.928 61.9465 111.724 61.9465H94.4347V76.6125H128.098L127.59 79.4642C126.369 85.4732 121.081 89.8527 114.979 89.8527H78.6707V72.1312H66.8731C61.9914 72.1312 56.6011 74.8811 54.3636 79.2605L48.6682 89.8527H36.2605C35.4468 89.8527 34.7349 89.1397 34.7349 88.325C34.7349 88.0194 34.8366 87.8157 34.9383 87.612L66.0595 29.5589C68.5004 24.874 73.3821 21.9204 78.6707 21.8185H128.098L127.59 24.4666C126.471 30.6793 120.979 35.1606 114.674 35.0587ZM64.8391 59.8077H78.6707V35.7716L78.3656 35.9753C77.3485 36.892 76.5349 37.9104 75.9247 39.1326L64.8391 59.8077ZM185.256 21.8185L184.849 24.0592C183.73 30.17 178.34 35.1606 172.034 35.0587H159.016C157.389 35.0587 155.863 35.1606 154.236 35.3643C153.219 35.4661 152.202 35.8735 151.287 36.3827C150.575 36.892 150.066 37.503 149.863 38.3178C149.558 39.3363 149.456 40.3548 149.456 41.3733C149.456 42.2899 149.558 43.2065 149.66 44.1231C149.761 44.8361 150.168 45.4472 150.575 45.9564C151.185 46.5675 151.795 46.9749 152.609 47.2804C153.728 47.6878 154.948 47.9933 156.169 48.197C156.169 48.197 175.696 50.9469 181.493 56.3448C184.747 59.4003 185.357 63.8816 185.357 68.5665C185.357 73.7608 185.357 76.6125 183.323 80.0753C180.476 84.8621 174.984 89.7508 161.559 89.7508H133.59L133.997 87.1028C135.116 80.8901 140.608 76.5106 146.812 76.5106H158.508C160.44 76.5106 162.271 76.4088 164.203 76.1033C165.322 76.0014 166.441 75.594 167.458 74.9829C168.17 74.4737 168.78 73.7608 169.085 72.946C169.39 72.1312 169.593 71.2146 169.492 70.2979C169.492 69.2795 169.39 68.261 169.288 67.2425C169.187 66.4277 168.78 64.6963 165.627 63.8816C161.152 62.7612 156.575 61.8446 151.999 61.2335C148.948 60.7243 145.897 59.9095 142.947 58.7892C140.811 57.9744 138.981 56.6504 137.353 55.0208C135.93 53.4931 135.014 51.558 134.506 49.6229C133.896 47.2804 133.692 44.7342 133.692 42.2899V40.7622C133.692 38.0123 134.201 35.2624 135.116 32.6144C136.031 30.2719 137.557 28.1331 139.489 26.6054C141.828 24.7721 144.574 23.5499 147.422 22.837C151.388 21.9204 155.457 21.513 159.525 21.513M209.461 37.4012V89.7508C200.816 89.7508 193.799 82.7233 193.799 74.0663V21.7167H193.9C202.443 21.7167 209.461 28.7442 209.461 37.4012ZM272.008 45.2435C272.008 50.234 270.991 54.1042 268.957 57.0578C266.822 60.0113 263.771 62.252 260.211 63.4742C260.109 63.4742 260.007 63.6779 260.007 63.7797C260.007 63.7797 260.007 63.7797 260.007 63.8816L274.958 89.3434C275.06 89.4453 274.958 89.649 274.856 89.649H274.754H258.075C257.973 89.649 257.872 89.5471 257.872 89.5471L247.498 70.7053C245.871 67.7518 242.82 65.9185 239.463 65.9185H234.378C234.277 65.9185 234.175 66.0204 234.175 66.1222V89.7508H218.818V36.9938C218.818 28.5405 225.632 21.7167 234.073 21.7167H246.481C250.447 21.6148 254.312 22.0222 258.177 22.837C261.025 23.4481 263.567 24.7721 265.805 26.6054C267.839 28.2349 269.466 30.4756 270.381 33.0218C271.398 36.0772 271.907 39.3363 271.805 42.5954L272.008 45.2435ZM255.634 43.6139C255.634 42.0862 255.431 40.6603 255.024 39.1326C254.719 38.0123 254.109 37.0957 253.193 36.3827C252.176 35.6698 251.058 35.1606 249.837 34.9569C248.108 34.6513 246.481 34.5495 244.752 34.5495H238.345C235.599 34.5495 233.361 36.7901 233.361 39.54V53.0857C233.361 53.1876 233.463 53.2894 233.565 53.2894H244.854C246.583 53.2894 248.21 53.1876 249.939 52.882C251.159 52.6783 252.278 52.1691 253.193 51.4562C254.007 50.7432 254.719 49.7247 255.024 48.6044C255.431 47.1786 255.634 45.6509 255.634 44.1231V43.6139ZM28.3276 100.241L25.9884 88.5287C25.785 87.8157 25.9884 87.0009 26.2935 86.3898L61.6863 20.8001C64.7374 15.0966 65.7544 2.77305 64.3305 2.06012C62.9067 1.24534 53.1432 8.8839 50.0921 14.5874L14.8011 80.1772C14.3943 80.7882 13.8858 81.3993 13.1738 81.603L2.08818 86.0843C0.359228 86.7972 -0.454398 88.8342 0.257524 90.5656C0.460931 91.0748 0.766041 91.4822 1.07115 91.7878L8.29208 99.2226L6.76653 109L14.0892 102.38L24.2595 104.315C26.0901 104.722 27.9208 103.602 28.3276 101.667C28.4293 101.26 28.4293 100.75 28.3276 100.241Z"
    fill="#383838"
  />
</svg>
