<svg
  width="180"
  height="180"
  viewBox="0 0 180 180"
  fill="none"
  xmlns="http://www.w3.org/2000/svg"
>
  <path
    d="M161.136 61.1446H132.697V80.2609H175.713L174.998 83.8273C173.426 92.5295 165.709 98.8065 156.991 98.8065H132.697V119.349H180L179.285 123.344C177.571 131.761 170.139 137.895 161.565 137.895H110.546V113.072H93.9681C87.1084 113.072 79.5341 116.924 76.3901 123.058L68.3871 137.895H50.9521C49.8088 137.895 48.8084 136.896 48.8084 135.755C48.8084 135.327 48.9513 135.042 49.0943 134.756L92.8248 53.4411C96.2546 46.8788 103.114 42.7417 110.546 42.599H180L179.285 46.3081C177.571 55.0103 169.996 61.2873 161.136 61.1446ZM91.1099 95.8106H110.546V62.1432L110.117 62.4285C108.688 63.7125 107.545 65.1391 106.687 66.851L91.1099 95.8106ZM39.8051 152.589L36.5181 136.183C36.2323 135.184 36.5182 134.043 36.9469 133.187L86.6796 41.3151C90.9669 33.3262 92.3961 16.0645 90.3953 15.0659C88.3946 14.0673 74.6752 24.624 70.3879 32.6129L20.798 124.628C20.2264 125.484 19.5118 126.34 18.5115 126.625L2.93425 132.902C0.504777 133.9 -0.638506 136.754 0.361865 139.179C0.647686 139.892 1.07642 140.463 1.50515 140.891L11.6518 151.305L9.50812 165L19.7977 155.727L34.0887 158.438C36.6611 159.008 39.2334 157.439 39.8051 154.729C39.948 153.873 39.948 153.302 39.8051 152.589Z"
    fill="#FFFFFF"
  />
</svg>
