<svg width="357" height="150" viewBox="0 0 357 150" fill="none" xmlns="http://www.w3.org/2000/svg">
<path d="M155.674 54.0587H135.435V67.7063H166.047L165.539 70.2525C164.42 76.4652 158.928 80.9465 152.724 80.9465H135.435V95.6125H169.098L168.59 98.4642C167.369 104.473 162.081 108.853 155.979 108.853H119.671V91.1312H107.873C102.991 91.1312 97.6011 93.8811 95.3636 98.2605L89.6682 108.853H77.2605C76.4468 108.853 75.7349 108.14 75.7349 107.325C75.7349 107.019 75.8366 106.816 75.9383 106.612L107.059 48.5589C109.5 43.874 114.382 40.9204 119.671 40.8185H169.098L168.59 43.4666C167.471 49.6793 161.979 54.1606 155.674 54.0587ZM105.839 78.8077H119.671V54.7716L119.366 54.9753C118.349 55.892 117.535 56.9104 116.925 58.1326L105.839 78.8077ZM226.256 40.8185L225.849 43.0592C224.73 49.17 219.34 54.1606 213.034 54.0587H200.016C198.389 54.0587 196.863 54.1606 195.236 54.3643C194.219 54.4661 193.202 54.8735 192.287 55.3827C191.575 55.892 191.066 56.503 190.863 57.3178C190.558 58.3363 190.456 59.3548 190.456 60.3733C190.456 61.2899 190.558 62.2065 190.66 63.1231C190.761 63.8361 191.168 64.4472 191.575 64.9564C192.185 65.5675 192.795 65.9749 193.609 66.2804C194.728 66.6878 195.948 66.9933 197.169 67.197C197.169 67.197 216.696 69.9469 222.493 75.3448C225.747 78.4003 226.357 82.8816 226.357 87.5665C226.357 92.7608 226.357 95.6125 224.323 99.0753C221.476 103.862 215.984 108.751 202.559 108.751H174.59L174.997 106.103C176.116 99.8901 181.608 95.5106 187.812 95.5106H199.508C201.44 95.5106 203.271 95.4088 205.203 95.1033C206.322 95.0014 207.441 94.594 208.458 93.9829C209.17 93.4737 209.78 92.7608 210.085 91.946C210.39 91.1312 210.593 90.2146 210.492 89.298C210.492 88.2795 210.39 87.261 210.288 86.2425C210.187 85.4277 209.78 83.6963 206.627 82.8816C202.152 81.7612 197.575 80.8446 192.999 80.2335C189.948 79.7243 186.897 78.9095 183.947 77.7892C181.811 76.9744 179.981 75.6504 178.353 74.0208C176.93 72.4931 176.014 70.558 175.506 68.6229C174.896 66.2804 174.692 63.7342 174.692 61.2899V59.7622C174.692 57.0123 175.201 54.2624 176.116 51.6144C177.031 49.2719 178.557 47.1331 180.489 45.6054C182.828 43.7721 185.574 42.5499 188.422 41.837C192.388 40.9204 196.457 40.513 200.525 40.513M250.461 56.4012V108.751C241.816 108.751 234.799 101.723 234.799 93.0663V40.7167H234.9C243.443 40.7167 250.461 47.7442 250.461 56.4012ZM313.008 64.2435C313.008 69.234 311.991 73.1042 309.957 76.0578C307.822 79.0114 304.771 81.252 301.211 82.4742C301.109 82.4742 301.007 82.6779 301.007 82.7797C301.007 82.7797 301.007 82.7797 301.007 82.8816L315.958 108.343C316.06 108.445 315.958 108.649 315.856 108.649H315.754H299.075C298.973 108.649 298.872 108.547 298.872 108.547L288.498 89.7053C286.871 86.7518 283.82 84.9185 280.463 84.9185H275.378C275.277 84.9185 275.175 85.0204 275.175 85.1222V108.751H259.818V55.9938C259.818 47.5405 266.632 40.7167 275.073 40.7167H287.481C291.447 40.6148 295.312 41.0222 299.177 41.837C302.025 42.4481 304.567 43.7721 306.805 45.6054C308.839 47.2349 310.466 49.4756 311.381 52.0218C312.398 55.0772 312.907 58.3363 312.805 61.5954L313.008 64.2435ZM296.634 62.6139C296.634 61.0862 296.431 59.6603 296.024 58.1326C295.719 57.0123 295.109 56.0957 294.193 55.3827C293.176 54.6698 292.058 54.1606 290.837 53.9569C289.108 53.6513 287.481 53.5495 285.752 53.5495H279.345C276.599 53.5495 274.361 55.7901 274.361 58.54V72.0857C274.361 72.1876 274.463 72.2894 274.565 72.2894H285.854C287.583 72.2894 289.21 72.1876 290.939 71.882C292.159 71.6783 293.278 71.1691 294.193 70.4562C295.007 69.7432 295.719 68.7247 296.024 67.6044C296.431 66.1786 296.634 64.6509 296.634 63.1231V62.6139ZM69.3276 119.241L66.9884 107.529C66.785 106.816 66.9884 106.001 67.2935 105.39L102.686 39.8001C105.737 34.0966 106.754 21.7731 105.331 21.0601C103.907 20.2453 94.1432 27.8839 91.0921 33.5874L55.8011 99.1772C55.3943 99.7882 54.8858 100.399 54.1738 100.603L43.0882 105.084C41.3592 105.797 40.5456 107.834 41.2575 109.566C41.4609 110.075 41.766 110.482 42.0712 110.788L49.2921 118.223L47.7665 128L55.0892 121.38L65.2595 123.315C67.0901 123.722 68.9208 122.602 69.3276 120.667C69.4293 120.26 69.4293 119.75 69.3276 119.241Z" fill="white"/>
<path d="M208.707 0.292893C208.317 -0.0976311 207.683 -0.0976311 207.293 0.292893L200.929 6.65685C200.538 7.04738 200.538 7.68054 200.929 8.07107C201.319 8.46159 201.953 8.46159 202.343 8.07107L208 2.41421L213.657 8.07107C214.047 8.46159 214.681 8.46159 215.071 8.07107C215.462 7.68054 215.462 7.04738 215.071 6.65685L208.707 0.292893ZM207.293 37.7071C207.683 38.0976 208.317 38.0976 208.707 37.7071L215.071 31.3431C215.462 30.9526 215.462 30.3195 215.071 29.9289C214.681 29.5384 214.047 29.5384 213.657 29.9289L208 35.5858L202.343 29.9289C201.953 29.5384 201.319 29.5384 200.929 29.9289C200.538 30.3195 200.538 30.9526 200.929 31.3431L207.293 37.7071ZM207 1L207 37L209 37L209 1L207 1Z" fill="white"/>
<path d="M129.707 112.293C129.317 111.902 128.683 111.902 128.293 112.293L121.929 118.657C121.538 119.047 121.538 119.681 121.929 120.071C122.319 120.462 122.953 120.462 123.343 120.071L129 114.414L134.657 120.071C135.047 120.462 135.681 120.462 136.071 120.071C136.462 119.681 136.462 119.047 136.071 118.657L129.707 112.293ZM128.293 149.707C128.683 150.098 129.317 150.098 129.707 149.707L136.071 143.343C136.462 142.953 136.462 142.319 136.071 141.929C135.681 141.538 135.047 141.538 134.657 141.929L129 147.586L123.343 141.929C122.953 141.538 122.319 141.538 121.929 141.929C121.538 142.319 121.538 142.953 121.929 143.343L128.293 149.707ZM128 113L128 149L130 149L130 113L128 113Z" fill="white"/>
<path d="M0.292893 108.293C-0.0976311 108.683 -0.0976311 109.317 0.292893 109.707L6.65685 116.071C7.04738 116.462 7.68054 116.462 8.07107 116.071C8.46159 115.681 8.46159 115.047 8.07107 114.657L2.41421 109L8.07107 103.343C8.46159 102.953 8.46159 102.319 8.07107 101.929C7.68054 101.538 7.04738 101.538 6.65685 101.929L0.292893 108.293ZM37.7071 109.707C38.0976 109.317 38.0976 108.683 37.7071 108.293L31.3431 101.929C30.9526 101.538 30.3195 101.538 29.9289 101.929C29.5384 102.319 29.5384 102.953 29.9289 103.343L35.5858 109L29.9289 114.657C29.5384 115.047 29.5384 115.681 29.9289 116.071C30.3195 116.462 30.9526 116.462 31.3431 116.071L37.7071 109.707ZM1 110H37V108H1L1 110Z" fill="white"/>
<path d="M319.293 102.293C318.902 102.683 318.902 103.317 319.293 103.707L325.657 110.071C326.047 110.462 326.681 110.462 327.071 110.071C327.462 109.681 327.462 109.047 327.071 108.657L321.414 103L327.071 97.3431C327.462 96.9526 327.462 96.3195 327.071 95.9289C326.681 95.5384 326.047 95.5384 325.657 95.9289L319.293 102.293ZM356.707 103.707C357.098 103.317 357.098 102.683 356.707 102.293L350.343 95.9289C349.953 95.5384 349.319 95.5384 348.929 95.9289C348.538 96.3195 348.538 96.9526 348.929 97.3431L354.586 103L348.929 108.657C348.538 109.047 348.538 109.681 348.929 110.071C349.319 110.462 349.953 110.462 350.343 110.071L356.707 103.707ZM320 104H356V102H320V104Z" fill="white"/>
</svg>
