<svg width="280" height="110" viewBox="0 0 280 110" fill="none" xmlns="http://www.w3.org/2000/svg">
<path d="M116.674 35.0587H96.4347V48.7063H127.047L126.539 51.2525C125.42 57.4652 119.928 61.9465 113.724 61.9465H96.4347V76.6125H130.098L129.59 79.4642C128.369 85.4732 123.081 89.8527 116.979 89.8527H80.6707V72.1312H68.8731C63.9914 72.1312 58.6011 74.8811 56.3636 79.2605L50.6682 89.8527H38.2605C37.4468 89.8527 36.7349 89.1397 36.7349 88.325C36.7349 88.0194 36.8366 87.8157 36.9383 87.612L68.0595 29.5589C70.5004 24.874 75.3821 21.9204 80.6707 21.8185H130.098L129.59 24.4666C128.471 30.6793 122.979 35.1606 116.674 35.0587ZM66.8391 59.8077H80.6707V35.7716L80.3656 35.9753C79.3485 36.892 78.5349 37.9104 77.9247 39.1326L66.8391 59.8077ZM187.256 21.8185L186.849 24.0592C185.73 30.17 180.34 35.1606 174.034 35.0587H161.016C159.389 35.0587 157.863 35.1606 156.236 35.3643C155.219 35.4661 154.202 35.8735 153.287 36.3827C152.575 36.892 152.066 37.503 151.863 38.3178C151.558 39.3363 151.456 40.3548 151.456 41.3733C151.456 42.2899 151.558 43.2065 151.66 44.1231C151.761 44.8361 152.168 45.4472 152.575 45.9564C153.185 46.5675 153.795 46.9749 154.609 47.2804C155.728 47.6878 156.948 47.9933 158.169 48.197C158.169 48.197 177.696 50.9469 183.493 56.3448C186.747 59.4003 187.357 63.8815 187.357 68.5665C187.357 73.7608 187.357 76.6125 185.323 80.0753C182.476 84.8621 176.984 89.7508 163.559 89.7508H135.59L135.997 87.1028C137.116 80.8901 142.608 76.5106 148.812 76.5106H160.508C162.44 76.5106 164.271 76.4088 166.203 76.1033C167.322 76.0014 168.441 75.594 169.458 74.9829C170.17 74.4737 170.78 73.7608 171.085 72.946C171.39 72.1312 171.593 71.2146 171.492 70.298C171.492 69.2795 171.39 68.261 171.288 67.2425C171.187 66.4277 170.78 64.6963 167.627 63.8816C163.152 62.7612 158.575 61.8446 153.999 61.2335C150.948 60.7243 147.896 59.9095 144.947 58.7892C142.811 57.9744 140.981 56.6504 139.353 55.0208C137.93 53.4931 137.014 51.558 136.506 49.6229C135.896 47.2804 135.692 44.7342 135.692 42.2899V40.7622C135.692 38.0123 136.201 35.2624 137.116 32.6144C138.031 30.2719 139.557 28.1331 141.489 26.6054C143.828 24.7721 146.574 23.5499 149.422 22.837C153.388 21.9204 157.457 21.513 161.525 21.513M211.461 37.4012V89.7508C202.816 89.7508 195.799 82.7233 195.799 74.0663V21.7167H195.9C204.443 21.7167 211.461 28.7442 211.461 37.4012ZM274.008 45.2435C274.008 50.234 272.991 54.1042 270.957 57.0578C268.822 60.0113 265.771 62.252 262.211 63.4742C262.109 63.4742 262.007 63.6779 262.007 63.7797C262.007 63.7797 262.007 63.7797 262.007 63.8816L276.958 89.3434C277.06 89.4453 276.958 89.649 276.856 89.649H276.754H260.075C259.973 89.649 259.872 89.5471 259.872 89.5471L249.498 70.7053C247.871 67.7518 244.82 65.9185 241.463 65.9185H236.378C236.277 65.9185 236.175 66.0204 236.175 66.1222V89.7508H220.818V36.9938C220.818 28.5405 227.632 21.7167 236.073 21.7167H248.481C252.447 21.6148 256.312 22.0222 260.177 22.837C263.025 23.4481 265.567 24.7721 267.805 26.6054C269.839 28.2349 271.466 30.4756 272.381 33.0218C273.398 36.0772 273.907 39.3363 273.805 42.5954L274.008 45.2435ZM257.634 43.6139C257.634 42.0862 257.431 40.6603 257.024 39.1326C256.719 38.0123 256.109 37.0957 255.193 36.3827C254.176 35.6698 253.058 35.1606 251.837 34.9569C250.108 34.6513 248.481 34.5495 246.752 34.5495H240.345C237.599 34.5495 235.361 36.7901 235.361 39.54V53.0857C235.361 53.1876 235.463 53.2894 235.565 53.2894H246.854C248.583 53.2894 250.21 53.1876 251.939 52.882C253.159 52.6783 254.278 52.1691 255.193 51.4562C256.007 50.7432 256.719 49.7248 257.024 48.6044C257.431 47.1786 257.634 45.6509 257.634 44.1231V43.6139ZM30.3276 100.241L27.9884 88.5287C27.785 87.8157 27.9884 87.0009 28.2935 86.3898L63.6863 20.8001C66.7374 15.0966 67.7544 2.77305 66.3305 2.06012C64.9067 1.24534 55.1432 8.8839 52.0921 14.5874L16.8011 80.1772C16.3943 80.7882 15.8858 81.3993 15.1738 81.603L4.08818 86.0843C2.35923 86.7972 1.5456 88.8342 2.25752 90.5656C2.46093 91.0748 2.76604 91.4822 3.07115 91.7878L10.2921 99.2226L8.76653 109L16.0892 102.38L26.2595 104.315C28.0901 104.722 29.9208 103.602 30.3276 101.667C30.4293 101.26 30.4293 100.75 30.3276 100.241Z" fill="#FF0000"/>
</svg>
