<svg width="413" height="206" viewBox="0 0 413 206" fill="none" xmlns="http://www.w3.org/2000/svg">
<path d="M183.674 82.0587H163.435V95.7063H194.047L193.539 98.2525C192.42 104.465 186.928 108.946 180.724 108.946H163.435V123.612H197.098L196.59 126.464C195.369 132.473 190.081 136.853 183.979 136.853H147.671V119.131H135.873C130.991 119.131 125.601 121.881 123.364 126.261L117.668 136.853H105.26C104.447 136.853 103.735 136.14 103.735 135.325C103.735 135.019 103.837 134.816 103.938 134.612L135.059 76.5589C137.5 71.874 142.382 68.9204 147.671 68.8185H197.098L196.59 71.4666C195.471 77.6793 189.979 82.1606 183.674 82.0587ZM133.839 106.808H147.671V82.7716L147.366 82.9753C146.349 83.892 145.535 84.9104 144.925 86.1326L133.839 106.808ZM254.256 68.8185L253.849 71.0592C252.73 77.17 247.34 82.1606 241.034 82.0587H228.016C226.389 82.0587 224.863 82.1606 223.236 82.3643C222.219 82.4661 221.202 82.8735 220.287 83.3827C219.575 83.892 219.066 84.503 218.863 85.3178C218.558 86.3363 218.456 87.3548 218.456 88.3733C218.456 89.2899 218.558 90.2065 218.66 91.1231C218.761 91.8361 219.168 92.4472 219.575 92.9564C220.185 93.5675 220.795 93.9749 221.609 94.2804C222.728 94.6878 223.948 94.9933 225.169 95.197C225.169 95.197 244.696 97.9469 250.493 103.345C253.747 106.4 254.357 110.882 254.357 115.567C254.357 120.761 254.357 123.612 252.323 127.075C249.476 131.862 243.984 136.751 230.559 136.751H202.59L202.997 134.103C204.116 127.89 209.608 123.511 215.812 123.511H227.508C229.44 123.511 231.271 123.409 233.203 123.103C234.322 123.001 235.441 122.594 236.458 121.983C237.17 121.474 237.78 120.761 238.085 119.946C238.39 119.131 238.593 118.215 238.492 117.298C238.492 116.279 238.39 115.261 238.288 114.243C238.187 113.428 237.78 111.696 234.627 110.882C230.152 109.761 225.575 108.845 220.999 108.234C217.948 107.724 214.896 106.91 211.947 105.789C209.811 104.974 207.981 103.65 206.353 102.021C204.93 100.493 204.014 98.558 203.506 96.6229C202.896 94.2804 202.692 91.7342 202.692 89.2899V87.7622C202.692 85.0123 203.201 82.2624 204.116 79.6144C205.031 77.2719 206.557 75.1331 208.489 73.6054C210.828 71.7721 213.574 70.5499 216.422 69.837C220.388 68.9204 224.457 68.513 228.525 68.513M278.461 84.4012V136.751C269.816 136.751 262.799 129.723 262.799 121.066V68.7167H262.9C271.443 68.7167 278.461 75.7442 278.461 84.4012ZM341.008 92.2435C341.008 97.234 339.991 101.104 337.957 104.058C335.822 107.011 332.771 109.252 329.211 110.474C329.109 110.474 329.007 110.678 329.007 110.78C329.007 110.78 329.007 110.78 329.007 110.882L343.958 136.343C344.06 136.445 343.958 136.649 343.856 136.649H343.754H327.075C326.973 136.649 326.872 136.547 326.872 136.547L316.498 117.705C314.871 114.752 311.82 112.919 308.463 112.919H303.378C303.277 112.919 303.175 113.02 303.175 113.122V136.751H287.818V83.9938C287.818 75.5405 294.632 68.7167 303.073 68.7167H315.481C319.447 68.6148 323.312 69.0222 327.177 69.837C330.025 70.4481 332.567 71.7721 334.805 73.6054C336.839 75.2349 338.466 77.4756 339.381 80.0218C340.398 83.0772 340.907 86.3363 340.805 89.5954L341.008 92.2435ZM324.634 90.6139C324.634 89.0862 324.431 87.6603 324.024 86.1326C323.719 85.0123 323.109 84.0957 322.193 83.3827C321.176 82.6698 320.058 82.1606 318.837 81.9569C317.108 81.6513 315.481 81.5495 313.752 81.5495H307.345C304.599 81.5495 302.361 83.7901 302.361 86.54V100.086C302.361 100.188 302.463 100.289 302.565 100.289H313.854C315.583 100.289 317.21 100.188 318.939 99.882C320.159 99.6783 321.278 99.1691 322.193 98.4562C323.007 97.7432 323.719 96.7248 324.024 95.6044C324.431 94.1786 324.634 92.6509 324.634 91.1231V90.6139ZM97.3276 147.241L94.9884 135.529C94.785 134.816 94.9884 134.001 95.2935 133.39L130.686 67.8001C133.737 62.0966 134.754 49.7731 133.331 49.0601C131.907 48.2453 122.143 55.8839 119.092 61.5874L83.8011 127.177C83.3943 127.788 82.8858 128.399 82.1738 128.603L71.0882 133.084C69.3592 133.797 68.5456 135.834 69.2575 137.566C69.4609 138.075 69.766 138.482 70.0712 138.788L77.2921 146.223L75.7665 156L83.0892 149.38L93.2595 151.315C95.0901 151.722 96.9208 150.602 97.3276 148.667C97.4293 148.26 97.4293 147.75 97.3276 147.241Z" fill="white"/>
<path d="M157.707 0.292893C157.317 -0.0976311 156.683 -0.0976311 156.293 0.292893L149.929 6.65685C149.538 7.04738 149.538 7.68054 149.929 8.07107C150.319 8.46159 150.953 8.46159 151.343 8.07107L157 2.41421L162.657 8.07107C163.047 8.46159 163.681 8.46159 164.071 8.07107C164.462 7.68054 164.462 7.04738 164.071 6.65685L157.707 0.292893ZM156.293 65.7071C156.683 66.0976 157.317 66.0976 157.707 65.7071L164.071 59.3431C164.462 58.9526 164.462 58.3195 164.071 57.9289C163.681 57.5384 163.047 57.5384 162.657 57.9289L157 63.5858L151.343 57.9289C150.953 57.5384 150.319 57.5384 149.929 57.9289C149.538 58.3195 149.538 58.9526 149.929 59.3431L156.293 65.7071ZM156 1L156 65L158 65L158 1L156 1Z" fill="white"/>
<path d="M157.707 140.293C157.317 139.902 156.683 139.902 156.293 140.293L149.929 146.657C149.538 147.047 149.538 147.681 149.929 148.071C150.319 148.462 150.953 148.462 151.343 148.071L157 142.414L162.657 148.071C163.047 148.462 163.681 148.462 164.071 148.071C164.462 147.681 164.462 147.047 164.071 146.657L157.707 140.293ZM156.293 205.707C156.683 206.098 157.317 206.098 157.707 205.707L164.071 199.343C164.462 198.953 164.462 198.319 164.071 197.929C163.681 197.538 163.047 197.538 162.657 197.929L157 203.586L151.343 197.929C150.953 197.538 150.319 197.538 149.929 197.929C149.538 198.319 149.538 198.953 149.929 199.343L156.293 205.707ZM156 141L156 205L158 205L158 141L156 141Z" fill="white"/>
<path d="M0.292893 135.293C-0.0976311 135.683 -0.0976311 136.317 0.292893 136.707L6.65685 143.071C7.04738 143.462 7.68054 143.462 8.07107 143.071C8.46159 142.681 8.46159 142.047 8.07107 141.657L2.41421 136L8.07107 130.343C8.46159 129.953 8.46159 129.319 8.07107 128.929C7.68054 128.538 7.04738 128.538 6.65685 128.929L0.292893 135.293ZM65.7071 136.707C66.0976 136.317 66.0976 135.683 65.7071 135.293L59.3431 128.929C58.9526 128.538 58.3195 128.538 57.9289 128.929C57.5384 129.319 57.5384 129.953 57.9289 130.343L63.5858 136L57.9289 141.657C57.5384 142.047 57.5384 142.681 57.9289 143.071C58.3195 143.462 58.9526 143.462 59.3431 143.071L65.7071 136.707ZM1 137H65V135H1L1 137Z" fill="white"/>
<path d="M347.293 135.293C346.902 135.683 346.902 136.317 347.293 136.707L353.657 143.071C354.047 143.462 354.681 143.462 355.071 143.071C355.462 142.681 355.462 142.047 355.071 141.657L349.414 136L355.071 130.343C355.462 129.953 355.462 129.319 355.071 128.929C354.681 128.538 354.047 128.538 353.657 128.929L347.293 135.293ZM412.707 136.707C413.098 136.317 413.098 135.683 412.707 135.293L406.343 128.929C405.953 128.538 405.319 128.538 404.929 128.929C404.538 129.319 404.538 129.953 404.929 130.343L410.586 136L404.929 141.657C404.538 142.047 404.538 142.681 404.929 143.071C405.319 143.462 405.953 143.462 406.343 143.071L412.707 136.707ZM348 137H412V135H348V137Z" fill="white"/>
</svg>
