<svg width="190" height="190" viewBox="0 0 190 190" fill="none" xmlns="http://www.w3.org/2000/svg">
<path d="M162.136 66.1446H133.697V85.2609H176.713L175.998 88.8273C174.426 97.5295 166.709 103.806 157.991 103.806H133.697V124.349H181L180.285 128.344C178.571 136.761 171.139 142.895 162.565 142.895H111.546V118.072H94.9681C88.1084 118.072 80.5341 121.924 77.3901 128.058L69.3871 142.895H51.9521C50.8088 142.895 49.8084 141.896 49.8084 140.755C49.8084 140.327 49.9513 140.042 50.0943 139.756L93.8248 58.4411C97.2546 51.8788 104.114 47.7417 111.546 47.599H181L180.285 51.3081C178.571 60.0103 170.996 66.2873 162.136 66.1446ZM92.1099 100.811H111.546V67.1432L111.117 67.4285C109.688 68.7125 108.545 70.1391 107.687 71.851L92.1099 100.811ZM40.8051 157.589L37.5181 141.183C37.2323 140.184 37.5182 139.043 37.9469 138.187L87.6796 46.3151C91.9669 38.3262 93.3961 21.0645 91.3953 20.0659C89.3946 19.0673 75.6752 29.624 71.3879 37.6129L21.798 129.628C21.2264 130.484 20.5118 131.34 19.5115 131.625L3.93425 137.902C1.50478 138.9 0.361494 141.754 1.36187 144.179C1.64769 144.892 2.07642 145.463 2.50515 145.891L12.6518 156.305L10.5081 170L20.7977 160.727L35.0887 163.438C37.6611 164.008 40.2334 162.439 40.8051 159.729C40.948 158.873 40.948 158.302 40.8051 157.589Z" fill="#FF0000"/>
</svg>
