<svg
  xmlns="http://www.w3.org/2000/svg"
  width="280"
  height="110"
  fill="none"
  viewBox="0 0 280 110"
>
  <path
    fill="#383838"
    d="M116.674 35.0587H96.4347v13.6476h30.6123l-.508 2.5462c-1.119 6.2127-6.611 10.694-12.815 10.694H96.4347v14.666h33.6633l-.508 2.8517c-1.221 6.009-6.509 10.3885-12.611 10.3885H80.6707V72.1312H68.8731c-4.8817 0-10.272 2.7499-12.5095 7.1293l-5.6954 10.5922H38.2605c-.8137 0-1.5256-.713-1.5256-1.5277 0-.3056.1017-.5093.2034-.713l31.1212-58.0531c2.4409-4.6849 7.3226-7.6385 12.6112-7.7404h49.4273l-.508 2.6481c-1.119 6.2127-6.611 10.694-12.916 10.5921m-49.8349 24.749h13.8316V35.7716l-.3051.2037c-1.0171.9167-1.8307 1.9351-2.4409 3.1573zM187.256 21.8185l-.407 2.2407c-1.119 6.1108-6.509 11.1014-12.815 10.9995h-13.018c-1.627 0-3.153.1019-4.78.3056-1.017.1018-2.034.5092-2.949 1.0184-.712.5093-1.221 1.1203-1.424 1.9351-.305 1.0185-.407 2.037-.407 3.0555 0 .9166.102 1.8332.204 2.7498.101.713.508 1.3241.915 1.8333.61.6111 1.22 1.0185 2.034 1.324 1.119.4074 2.339.7129 3.56.9166 0 0 19.527 2.7499 25.324 8.1478 3.254 3.0555 3.864 7.5367 3.864 12.2217 0 5.1943 0 8.046-2.034 11.5088-2.847 4.7868-8.339 9.6755-21.764 9.6755H135.59l.407-2.648c1.119-6.2127 6.611-10.5922 12.815-10.5922h11.696c1.932 0 3.763-.1018 5.695-.4073 1.119-.1019 2.238-.5093 3.255-1.1204.712-.5092 1.322-1.2221 1.627-2.0369s.508-1.7314.407-2.648c0-1.0185-.102-2.037-.204-3.0555-.101-.8148-.508-2.5462-3.661-3.3609-4.475-1.1204-9.052-2.037-13.628-2.6481-3.051-.5092-6.103-1.324-9.052-2.4443-2.136-.8148-3.966-2.1388-5.594-3.7684-1.423-1.5277-2.339-3.4628-2.847-5.3979-.61-2.3425-.814-4.8887-.814-7.333v-1.5277c0-2.7499.509-5.4998 1.424-8.1478.915-2.3425 2.441-4.4813 4.373-6.009 2.339-1.8333 5.085-3.0555 7.933-3.7684 3.966-.9166 8.035-1.324 12.103-1.324m49.936 15.8882v52.3496c-8.645 0-15.662-7.0275-15.662-15.6845V21.7167h.101c8.543 0 15.561 7.0275 15.561 15.6845m62.547 7.8423c0 4.9905-1.017 8.8607-3.051 11.8143-2.135 2.9535-5.186 5.1942-8.746 6.4164-.102 0-.204.2037-.204.3055v.1019l14.951 25.4618c.102.1019 0 .3056-.102.3056h-16.781c-.102 0-.203-.1019-.203-.1019l-10.374-18.8418c-1.627-2.9535-4.678-4.7868-8.035-4.7868h-5.085c-.101 0-.203.1019-.203.2037v23.6286h-15.357v-52.757c0-8.4533 6.814-15.2771 15.255-15.2771h12.408c3.966-.1019 7.831.3055 11.696 1.1203 2.848.6111 5.39 1.9351 7.628 3.7684 2.034 1.6295 3.661 3.8702 4.576 6.4164 1.017 3.0554 1.526 6.3145 1.424 9.5736zm-16.374-1.6296c0-1.5277-.203-2.9536-.61-4.4813-.305-1.1203-.915-2.0369-1.831-2.7499-1.017-.7129-2.135-1.2221-3.356-1.4258-1.729-.3056-3.356-.4074-5.085-.4074h-6.407c-2.746 0-4.984 2.2406-4.984 4.9905v13.5457c0 .1019.102.2037.204.2037h11.289c1.729 0 3.356-.1018 5.085-.4074 1.22-.2037 2.339-.7129 3.254-1.4258.814-.713 1.526-1.7314 1.831-2.8518.407-1.4258.61-2.9535.61-4.4813zM30.3276 100.241l-2.3392-11.7123c-.2034-.713 0-1.5278.3051-2.1389l35.3928-65.5897c3.0511-5.7035 4.0681-18.027 2.6442-18.74-1.4238-.8148-11.1873 6.8238-14.2384 12.5273l-35.291 65.5898c-.4068.611-.9153 1.2221-1.6273 1.4258L4.0882 86.0843c-1.729.7129-2.5426 2.7499-1.8307 4.4813.2034.5092.5085.9166.8137 1.2222l7.2209 7.4348L8.7665 109l7.3227-6.62 10.1703 1.935c1.8306.407 3.6613-.713 4.0681-2.648.1017-.407.1017-.917 0-1.426"
  />
</svg>
