<svg
  xmlns="http://www.w3.org/2000/svg"
  width="190"
  height="190"
  fill="none"
  viewBox="0 0 190 190"
>
  <path
    fill="#FFF"
    d="M162.136 66.1446h-28.439v19.1163h43.016l-.715 3.5664c-1.572 8.7022-9.289 14.9787-18.007 14.9787h-24.294v20.543H181l-.715 3.995c-1.714 8.417-9.146 14.551-17.72 14.551h-51.019v-24.823H94.9681c-6.8597 0-14.434 3.852-17.578 9.986l-8.003 14.837h-17.435c-1.1433 0-2.1437-.999-2.1437-2.14 0-.428.1429-.713.2859-.999l43.7305-81.3149c3.4298-6.5623 10.2892-10.6994 17.7212-10.8421H181l-.715 3.7091c-1.714 8.7022-9.289 14.9792-18.149 14.8365M92.1099 100.811h19.4361V67.1432l-.429.2853c-1.429 1.284-2.572 2.7106-3.43 4.4225zm-51.3048 56.778-3.287-16.406c-.2858-.999.0001-2.14.4288-2.996l49.7327-91.8719c4.2873-7.9889 5.7165-25.2506 3.7157-26.2492s-15.7201 9.5581-20.0074 17.547L21.798 129.628c-.5716.856-1.2862 1.712-2.2865 1.997l-15.5772 6.277c-2.4295.998-3.5728 3.852-2.5724 6.277.2858.713.7145 1.284 1.1432 1.712l10.1467 10.414L10.5081 170l10.2896-9.273 14.291 2.711c2.5724.57 5.1447-.999 5.7164-3.709.1429-.856.1429-1.427 0-2.14"
  />
</svg>
